<?xml version="1.0" encoding="UTF-8"?>
<svg xmlns="http://www.w3.org/2000/svg" xmlns:xlink="http://www.w3.org/1999/xlink" viewBox="0 0 48 48" width="48px" height="48px">
<g id="surface2503791">
<path style="fill-rule:nonzero;fill:rgb(0%,0%,0%);fill-opacity:1;stroke-width:7;stroke-linecap:butt;stroke-linejoin:round;stroke:rgb(0%,0%,0%);stroke-opacity:1;stroke-miterlimit:10;" d="M 149.243173 96.938649 C 149.243173 96.938649 150.495801 111.081699 160.939227 122.399052 C 143.329601 125.4141 137.095589 108.853185 137.095589 108.853185 Z M 149.243173 96.938649 " transform="matrix(0.268186,0,0,0.268186,0.936,0.936)"/>
<path style="fill-rule:nonzero;fill:rgb(20%,20%,20%);fill-opacity:1;stroke-width:7;stroke-linecap:butt;stroke-linejoin:round;stroke:rgb(0%,0%,0%);stroke-opacity:1;stroke-miterlimit:10;" d="M 154.617823 122.66123 C 142.222627 121.408602 137.416029 109.683416 137.139285 108.896882 L 145.660072 100.507184 C 145.660072 100.507184 146.708785 112.086715 154.617823 122.66123 Z M 154.617823 122.66123 " transform="matrix(0.268186,0,0,0.268186,0.936,0.936)"/>
<path style="fill-rule:nonzero;fill:rgb(0%,0%,0%);fill-opacity:1;stroke-width:7;stroke-linecap:butt;stroke-linejoin:round;stroke:rgb(0%,0%,0%);stroke-opacity:1;stroke-miterlimit:10;" d="M 132.5803 28.670395 C 132.5803 28.670395 146.912701 25.087294 154.078901 43.002795 C 143.329601 39.419695 125.4141 39.419695 125.4141 39.419695 Z M 132.5803 28.670395 " transform="matrix(0.268186,0,0,0.268186,0.936,0.936)"/>
<path style="fill-rule:nonzero;fill:rgb(0%,0%,0%);fill-opacity:1;stroke-width:7;stroke-linecap:butt;stroke-linejoin:round;stroke:rgb(0%,0%,0%);stroke-opacity:1;stroke-miterlimit:10;" d="M 129.492425 77.828781 L 146.912701 78.833797 C 150.495801 96.749298 164.828202 100.332398 164.828202 100.332398 C 143.329601 114.664799 128.9972 100.332398 128.9972 100.332398 Z M 129.492425 77.828781 " transform="matrix(0.268186,0,0,0.268186,0.936,0.936)"/>
<path style="fill-rule:nonzero;fill:rgb(20%,20%,20%);fill-opacity:1;stroke-width:7;stroke-linecap:butt;stroke-linejoin:round;stroke:rgb(0%,0%,0%);stroke-opacity:1;stroke-miterlimit:10;" d="M 159.570075 103.347446 C 141.042825 112.378024 128.9972 100.332398 128.9972 100.332398 L 129.434163 81.630363 L 143.329601 82.416897 C 146.169863 96.574513 155.695666 101.759812 159.570075 103.347446 Z M 159.570075 103.347446 " transform="matrix(0.268186,0,0,0.268186,0.936,0.936)"/>
<path style="fill-rule:nonzero;fill:rgb(30.980393%,30.980393%,30.980393%);fill-opacity:1;stroke-width:7;stroke-linecap:butt;stroke-linejoin:round;stroke:rgb(0%,0%,0%);stroke-opacity:1;stroke-miterlimit:10;" d="M 121.831 103.915499 L 137.852992 103.915499 C 141.217611 103.915499 144.276355 105.809007 145.776596 108.809489 C 146.533999 110.30973 146.912701 111.955626 146.912701 113.616087 L 146.912701 114.664799 C 146.912701 119.311177 145.41246 123.841031 142.615894 127.569786 L 139.39693 131.866593 C 137.357767 134.575767 134.167934 136.1634 130.78875 136.1634 L 121.831 136.1634 Z M 121.831 103.915499 " transform="matrix(0.268186,0,0,0.268186,0.936,0.936)"/>
<path style="fill-rule:nonzero;fill:rgb(0%,0%,0%);fill-opacity:1;stroke-width:7;stroke-linecap:butt;stroke-linejoin:round;stroke:rgb(0%,0%,0%);stroke-opacity:1;stroke-miterlimit:10;" d="M 25.087294 64.501396 C 21.504194 64.501396 21.504194 64.501396 21.504194 57.335196 C 21.504194 46.585896 32.253495 43.002795 32.253495 43.002795 L 75.250697 43.002795 L 64.501396 60.918296 C 64.501396 60.918296 28.670395 64.501396 25.087294 64.501396 Z M 25.087294 64.501396 " transform="matrix(0.268186,0,0,0.268186,0.936,0.936)"/>
<path style="fill-rule:nonzero;fill:rgb(30.980393%,30.980393%,30.980393%);fill-opacity:1;stroke-width:7;stroke-linecap:butt;stroke-linejoin:round;stroke:rgb(0%,0%,0%);stroke-opacity:1;stroke-miterlimit:10;" d="M 50.168996 136.1634 L 41.211245 136.1634 C 37.832061 136.1634 34.642228 134.575767 32.603066 131.866593 L 29.384102 127.569786 C 28.087777 125.836498 27.068195 123.94299 26.354488 121.932958 C 25.669912 120.054015 28.670395 115.145459 28.670395 114.664799 L 28.670395 110.032987 C 28.670395 108.372526 26.223399 108.809489 26.223399 108.809489 C 27.72364 105.809007 30.782385 103.915499 34.147003 103.915499 L 50.168996 103.915499 Z M 50.168996 136.1634 " transform="matrix(0.268186,0,0,0.268186,0.936,0.936)"/>
<path style="fill-rule:nonzero;fill:rgb(0%,0%,0%);fill-opacity:1;stroke-width:7;stroke-linecap:butt;stroke-linejoin:round;stroke:rgb(0%,0%,0%);stroke-opacity:1;stroke-miterlimit:10;" d="M 71.667597 14.337994 C 71.667597 14.337994 96.749298 10.754894 103.915499 10.754894 C 111.081699 10.754894 121.831 17.921094 121.831 17.921094 L 125.4141 64.501396 L 75.250697 64.501396 Z M 71.667597 14.337994 " transform="matrix(0.268186,0,0,0.268186,0.936,0.936)"/>
<path style="fill-rule:nonzero;fill:rgb(0%,0%,0%);fill-opacity:1;stroke-width:7;stroke-linecap:butt;stroke-linejoin:round;stroke:rgb(0%,0%,0%);stroke-opacity:1;stroke-miterlimit:10;" d="M 39.419695 53.752096 C 39.419695 53.752096 25.087294 50.168996 25.087294 35.836595 C 25.087294 28.670395 30.345421 22.450948 39.419695 17.921094 C 46.585896 14.337994 53.752096 10.754894 53.752096 0.00559304 C 53.752096 0.00559304 64.501396 10.754894 64.501396 25.087294 C 64.501396 39.856659 64.501396 53.752096 64.501396 53.752096 Z M 39.419695 53.752096 " transform="matrix(0.268186,0,0,0.268186,0.936,0.936)"/>
<path style="fill-rule:nonzero;fill:rgb(20%,20%,20%);fill-opacity:1;stroke-width:7;stroke-linecap:butt;stroke-linejoin:round;stroke:rgb(0%,0%,0%);stroke-opacity:1;stroke-miterlimit:10;" d="M 51.232273 57.335196 C 49.076587 56.577793 32.253495 46.585896 32.253495 35.836595 C 32.253495 30.330856 38.749685 26.267096 42.624094 24.329891 C 46.556765 22.363556 57.335196 15.546926 63.059417 12.2697 C 64.195522 15.095397 57.335196 21.635283 57.335196 25.087294 L 57.335196 50.168996 Z M 51.232273 57.335196 " transform="matrix(0.268186,0,0,0.268186,0.936,0.936)"/>
<path style="fill-rule:nonzero;fill:rgb(0%,0%,0%);fill-opacity:1;stroke-width:7;stroke-linecap:butt;stroke-linejoin:round;stroke:rgb(0%,0%,0%);stroke-opacity:1;stroke-miterlimit:10;" d="M 39.419695 121.831 C 39.419695 121.831 35.836595 125.4141 17.921094 121.831 C 25.087294 121.831 28.670395 107.498599 28.670395 103.915499 L 39.419695 103.915499 Z M 39.419695 121.831 " transform="matrix(0.268186,0,0,0.268186,0.936,0.936)"/>
<path style="fill-rule:nonzero;fill:rgb(20%,20%,20%);fill-opacity:1;stroke-width:7;stroke-linecap:butt;stroke-linejoin:round;stroke:rgb(0%,0%,0%);stroke-opacity:1;stroke-miterlimit:10;" d="M 39.419695 105.0953 L 39.419695 121.831 C 39.419695 121.831 36.870742 124.379953 25.334907 123.010801 C 32.326322 122.66123 35.836595 108.649269 35.836595 105.0953 Z M 39.419695 105.0953 " transform="matrix(0.268186,0,0,0.268186,0.936,0.936)"/>
<path style="fill-rule:nonzero;fill:rgb(0%,0%,0%);fill-opacity:1;stroke-width:7;stroke-linecap:butt;stroke-linejoin:round;stroke:rgb(0%,0%,0%);stroke-opacity:1;stroke-miterlimit:10;" d="M 60.918296 50.168996 C 60.918296 50.168996 46.585896 43.002795 46.585896 32.253495 C 46.585896 25.087294 52.9073 18.76589 60.918296 10.754894 C 71.667597 0.00559304 82.416897 7.171793 100.332398 3.588693 C 100.332398 3.588693 82.416897 21.504194 85.999998 35.836595 C 89.583098 50.168996 85.999998 50.168996 85.999998 50.168996 Z M 60.918296 50.168996 " transform="matrix(0.268186,0,0,0.268186,0.936,0.936)"/>
<path style="fill-rule:nonzero;fill:rgb(20%,20%,20%);fill-opacity:1;stroke-width:7;stroke-linecap:butt;stroke-linejoin:round;stroke:rgb(0%,0%,0%);stroke-opacity:1;stroke-miterlimit:10;" d="M 80.902091 43.002795 L 66.351208 46.585896 C 62.753543 44.415644 57.335196 36.390082 57.335196 32.253495 C 57.335196 28.04408 63.001155 22.378121 69.570172 15.823669 C 73.095011 12.284266 76.357671 11.643386 81.51384 11.643386 C 82.941254 11.643386 83.931704 11.803606 84.732804 11.818171 L 78.833797 21.504194 L 93.166198 21.504194 C 102.007425 20.586571 106.347928 17.921094 107.498599 17.921094 C 110.324296 17.921094 116.427218 20.120477 121.466863 22.319859 Z M 80.902091 43.002795 " transform="matrix(0.268186,0,0,0.268186,0.936,0.936)"/>
<path style="fill-rule:nonzero;fill:rgb(0%,0%,0%);fill-opacity:1;stroke-width:7;stroke-linecap:butt;stroke-linejoin:round;stroke:rgb(0%,0%,0%);stroke-opacity:1;stroke-miterlimit:10;" d="M 39.419695 107.498599 C 39.419695 107.498599 28.670395 118.247899 7.171793 103.915499 C 7.171793 103.915499 25.087294 100.332398 28.670395 82.416897 L 35.836595 78.833797 Z M 39.419695 107.498599 " transform="matrix(0.268186,0,0,0.268186,0.936,0.936)"/>
<path style="fill-rule:nonzero;fill:rgb(20%,20%,20%);fill-opacity:1;stroke-width:7;stroke-linecap:butt;stroke-linejoin:round;stroke:rgb(0%,0%,0%);stroke-opacity:1;stroke-miterlimit:10;" d="M 39.419695 107.498599 C 39.419695 107.498599 30.884343 116.033951 13.871899 107.789908 C 15.444968 107.396641 31.860228 103.347446 35.253977 86.291307 L 36.695956 85.563034 Z M 39.419695 107.498599 " transform="matrix(0.268186,0,0,0.268186,0.936,0.936)"/>
<path style="fill-rule:nonzero;fill:rgb(0%,0%,0%);fill-opacity:1;stroke-width:7;stroke-linecap:butt;stroke-linejoin:round;stroke:rgb(0%,0%,0%);stroke-opacity:1;stroke-miterlimit:10;" d="M 43.002795 75.250697 L 39.419695 85.999998 C 14.337994 103.915499 0.00559304 85.999998 0.00559304 85.999998 C 0.00559304 85.999998 14.337994 85.999998 17.921094 68.084497 C 20.135042 56.97106 35.836595 57.335196 35.836595 57.335196 L 53.752096 57.335196 Z M 43.002795 75.250697 " transform="matrix(0.268186,0,0,0.268186,0.936,0.936)"/>
<path style="fill-rule:nonzero;fill:rgb(20%,20%,20%);fill-opacity:1;stroke-width:7;stroke-linecap:butt;stroke-linejoin:round;stroke:rgb(0%,0%,0%);stroke-opacity:1;stroke-miterlimit:10;" d="M 49.455289 64.501396 L 43.002795 75.250697 L 39.419695 85.999998 C 26.878844 94.957748 17.018036 94.957748 10.31793 92.700104 C 14.760392 91.59313 21.970289 87.68959 25.087294 75.250697 C 28.670395 60.918296 46.585896 53.752096 46.585896 53.752096 Z M 49.455289 64.501396 " transform="matrix(0.268186,0,0,0.268186,0.936,0.936)"/>
<path style="fill-rule:nonzero;fill:rgb(0%,0%,0%);fill-opacity:1;stroke-width:7;stroke-linecap:butt;stroke-linejoin:round;stroke:rgb(0%,0%,0%);stroke-opacity:1;stroke-miterlimit:10;" d="M 90.748334 44.371947 C 90.748334 44.371947 103.944629 33.447861 114.664799 32.253495 C 125.384969 31.044563 136.1634 35.836595 136.1634 35.836595 C 136.1634 35.836595 148.281853 42.638659 150.495801 53.752096 C 157.662001 89.583098 171.994402 82.416897 171.994402 82.416897 C 171.994402 82.416897 157.662001 100.332398 132.5803 82.416897 L 128.9972 71.667597 Z M 90.748334 44.371947 " transform="matrix(0.268186,0,0,0.268186,0.936,0.936)"/>
<path style="fill-rule:nonzero;fill:rgb(20%,20%,20%);fill-opacity:1;stroke-width:7;stroke-linecap:butt;stroke-linejoin:round;stroke:rgb(0%,0%,0%);stroke-opacity:1;stroke-miterlimit:10;" d="M 159.249635 89.80158 C 152.680618 91.27269 143.693737 90.340501 132.5803 82.416897 L 128.9972 71.667597 L 92.277706 45.478921 C 96.792995 42.711486 102.415257 39.958617 107.498599 39.419695 C 118.218768 38.239894 128.9972 43.002795 128.9972 43.002795 C 128.9972 43.002795 141.115653 49.80486 143.329601 60.918296 C 147.597277 82.271243 154.443037 88.3596 159.249635 89.80158 Z M 159.249635 89.80158 " transform="matrix(0.268186,0,0,0.268186,0.936,0.936)"/>
<path style="fill-rule:nonzero;fill:rgb(93.333334%,93.333334%,93.333334%);fill-opacity:1;stroke-width:7;stroke-linecap:butt;stroke-linejoin:round;stroke:rgb(0%,0%,0%);stroke-opacity:1;stroke-miterlimit:10;" d="M 137.721903 107.644253 L 130.410048 133.206614 C 127.161954 144.422009 120.359889 154.297383 111.008872 161.303363 L 105.342913 165.556474 C 99.764346 169.736758 92.976847 171.994402 85.999998 171.994402 C 79.023148 171.994402 72.235649 169.736758 66.657083 165.556474 L 60.991124 161.303363 C 51.640106 154.297383 44.838042 144.422009 41.589947 133.206614 L 34.278092 107.644253 C 31.670877 98.293236 31.306741 84.397798 34.817014 73.531974 C 41.648209 52.397509 60.190024 42.929968 85.999998 43.002795 C 95.088837 42.973664 103.274619 44.1389 110.367992 46.57133 L 114.504579 51.640106 L 120.665764 51.509017 C 128.370886 56.504966 134.036845 63.773124 137.182982 73.531974 C 140.693255 84.397798 140.343684 98.293236 137.721903 107.644253 Z M 137.721903 107.644253 " transform="matrix(0.268186,0,0,0.268186,0.936,0.936)"/>
<path style="fill-rule:nonzero;fill:rgb(30.980393%,30.980393%,30.980393%);fill-opacity:1;stroke-width:7;stroke-linecap:butt;stroke-linejoin:round;stroke:rgb(0%,0%,0%);stroke-opacity:1;stroke-miterlimit:10;" d="M 85.067809 129.303074 C 86.349568 130.701357 86.262176 138.173432 85.067809 139.484322 C 83.873442 140.780647 78.833797 137.081024 78.833797 134.386416 C 78.833797 131.691808 83.78605 127.904791 85.067809 129.303074 Z M 85.067809 129.303074 " transform="matrix(0.268186,0,0,0.268186,0.936,0.936)"/>
<path style="fill-rule:nonzero;fill:rgb(100%,100%,100%);fill-opacity:1;stroke-width:7;stroke-linecap:butt;stroke-linejoin:round;stroke:rgb(0%,0%,0%);stroke-opacity:1;stroke-miterlimit:10;" d="M 45.755665 105.940096 L 51.960546 102.123949 L 66.292947 102.123949 L 71.667597 107.498599 L 71.667597 118.247899 L 64.501396 125.4141 L 50.168996 125.4141 L 43.002795 118.247899 L 43.002795 111.081699 Z M 45.755665 105.940096 " transform="matrix(0.268186,0,0,0.268186,0.936,0.936)"/>
<path style="fill-rule:nonzero;fill:rgb(0%,0%,0%);fill-opacity:1;stroke-width:7;stroke-linecap:butt;stroke-linejoin:round;stroke:rgb(0%,0%,0%);stroke-opacity:1;stroke-miterlimit:10;" d="M 68.084497 103.915499 L 68.084497 111.081699 C 68.084497 116.033951 64.078999 120.039449 59.126746 120.039449 C 54.174494 120.039449 50.168996 116.033951 50.168996 111.081699 L 50.168996 107.498599 L 53.752096 103.915499 C 54.334714 103.318315 53.926881 103.740713 54.655154 103.318315 C 55.980609 102.560912 57.495416 102.123949 59.126746 102.123949 C 61.122213 102.123949 62.957459 102.808525 64.443135 103.915499 Z M 68.084497 103.915499 " transform="matrix(0.268186,0,0,0.268186,0.936,0.936)"/>
<path style="fill-rule:nonzero;fill:rgb(20%,20%,20%);fill-opacity:1;stroke-width:7;stroke-linecap:butt;stroke-linejoin:round;stroke:rgb(0%,0%,0%);stroke-opacity:1;stroke-miterlimit:10;" d="M 68.084497 111.081699 L 64.166391 111.081699 C 63.438119 113.164558 61.457218 114.664799 59.126746 114.664799 C 56.781709 114.664799 54.815374 113.164558 54.072536 111.081699 L 50.168996 111.081699 L 50.168996 107.498599 L 55.84952 101.818074 L 68.084497 102.123949 Z M 68.084497 111.081699 " transform="matrix(0.268186,0,0,0.268186,0.936,0.936)"/>
<path style="fill-rule:nonzero;fill:rgb(12.941177%,12.941177%,12.941177%);fill-opacity:1;stroke-width:7;stroke-linecap:butt;stroke-linejoin:round;stroke:rgb(0%,0%,0%);stroke-opacity:1;stroke-miterlimit:10;" d="M 74.726341 108.022955 L 72.191953 110.557343 L 65.550109 103.915499 L 52.382944 103.915499 L 45.595445 107.309248 L 45.58088 107.309248 L 43.002795 111.081699 L 43.993246 104.104849 L 50.168996 100.332398 L 67.035784 100.332398 Z M 74.726341 108.022955 " transform="matrix(0.268186,0,0,0.268186,0.936,0.936)"/>
<path style="fill-rule:nonzero;fill:rgb(100%,100%,100%);fill-opacity:1;stroke-width:7;stroke-linecap:butt;stroke-linejoin:round;stroke:rgb(0%,0%,0%);stroke-opacity:1;stroke-miterlimit:10;" d="M 128.9972 111.081699 L 128.9972 118.247899 L 121.831 125.4141 L 107.498599 125.4141 L 100.332398 118.247899 L 100.332398 107.498599 L 105.707049 102.123949 L 120.039449 102.123949 L 126.24433 105.940096 Z M 128.9972 111.081699 " transform="matrix(0.268186,0,0,0.268186,0.936,0.936)"/>
<path style="fill-rule:nonzero;fill:rgb(0%,0%,0%);fill-opacity:1;stroke-width:7;stroke-linecap:butt;stroke-linejoin:round;stroke:rgb(0%,0%,0%);stroke-opacity:1;stroke-miterlimit:10;" d="M 107.556861 103.915499 C 109.042536 102.808525 110.877783 102.123949 112.873249 102.123949 C 114.504579 102.123949 116.019386 102.560912 117.344842 103.318315 C 118.073114 103.740713 117.665281 103.318315 118.247899 103.915499 L 121.831 107.498599 L 121.831 111.081699 C 121.831 116.033951 117.825501 120.039449 112.873249 120.039449 C 107.920997 120.039449 103.915499 116.033951 103.915499 111.081699 L 103.915499 103.915499 Z M 107.556861 103.915499 " transform="matrix(0.268186,0,0,0.268186,0.936,0.936)"/>
<path style="fill-rule:nonzero;fill:rgb(20%,20%,20%);fill-opacity:1;stroke-width:7;stroke-linecap:butt;stroke-linejoin:round;stroke:rgb(0%,0%,0%);stroke-opacity:1;stroke-miterlimit:10;" d="M 103.915499 102.123949 L 116.150475 101.818074 L 121.831 107.498599 L 121.831 111.081699 L 117.92746 111.081699 C 117.184622 113.164558 115.218286 114.664799 112.873249 114.664799 C 110.542777 114.664799 108.561876 113.164558 107.833604 111.081699 L 103.915499 111.081699 Z M 103.915499 102.123949 " transform="matrix(0.268186,0,0,0.268186,0.936,0.936)"/>
<path style="fill-rule:nonzero;fill:rgb(12.941177%,12.941177%,12.941177%);fill-opacity:1;stroke-width:7;stroke-linecap:butt;stroke-linejoin:round;stroke:rgb(0%,0%,0%);stroke-opacity:1;stroke-miterlimit:10;" d="M 104.964211 100.332398 L 121.831 100.332398 L 128.006749 104.104849 L 128.9972 111.081699 L 126.419116 107.309248 L 126.40455 107.309248 L 119.617051 103.915499 L 106.449887 103.915499 L 99.808042 110.557343 L 97.273654 108.022955 Z M 104.964211 100.332398 " transform="matrix(0.268186,0,0,0.268186,0.936,0.936)"/>
<path style="fill-rule:nonzero;fill:rgb(12.941177%,12.941177%,12.941177%);fill-opacity:1;stroke-width:7;stroke-linecap:butt;stroke-linejoin:round;stroke:rgb(0%,0%,0%);stroke-opacity:1;stroke-miterlimit:10;" d="M 68.084497 93.166198 L 75.250697 100.332398 L 57.335196 93.166198 L 39.419695 78.833797 Z M 68.084497 93.166198 " transform="matrix(0.268186,0,0,0.268186,0.936,0.936)"/>
<path style="fill-rule:nonzero;fill:rgb(12.941177%,12.941177%,12.941177%);fill-opacity:1;stroke-width:7;stroke-linecap:butt;stroke-linejoin:round;stroke:rgb(0%,0%,0%);stroke-opacity:1;stroke-miterlimit:10;" d="M 132.5803 78.833797 L 114.664799 93.166198 L 96.749298 100.332398 L 103.915499 93.166198 Z M 132.5803 78.833797 " transform="matrix(0.268186,0,0,0.268186,0.936,0.936)"/>
<path style="fill-rule:nonzero;fill:rgb(100%,100%,100%);fill-opacity:1;stroke-width:7;stroke-linecap:butt;stroke-linejoin:round;stroke:rgb(0%,0%,0%);stroke-opacity:1;stroke-miterlimit:10;" d="M 57.335196 111.081699 C 57.335196 109.100798 58.937395 107.498599 60.918296 107.498599 C 62.899197 107.498599 64.501396 109.100798 64.501396 111.081699 C 64.501396 113.0626 62.899197 114.664799 60.918296 114.664799 C 58.937395 114.664799 57.335196 113.0626 57.335196 111.081699 Z M 57.335196 111.081699 " transform="matrix(0.268186,0,0,0.268186,0.936,0.936)"/>
<path style="fill-rule:nonzero;fill:rgb(100%,100%,100%);fill-opacity:1;stroke-width:7;stroke-linecap:butt;stroke-linejoin:round;stroke:rgb(0%,0%,0%);stroke-opacity:1;stroke-miterlimit:10;" d="M 111.081699 111.081699 C 111.081699 109.100798 112.683898 107.498599 114.664799 107.498599 C 116.6457 107.498599 118.247899 109.100798 118.247899 111.081699 C 118.247899 113.0626 116.6457 114.664799 114.664799 114.664799 C 112.683898 114.664799 111.081699 113.0626 111.081699 111.081699 Z M 111.081699 111.081699 " transform="matrix(0.268186,0,0,0.268186,0.936,0.936)"/>
<path style="fill-rule:nonzero;fill:rgb(30.980393%,30.980393%,30.980393%);fill-opacity:1;stroke-width:7;stroke-linecap:butt;stroke-linejoin:round;stroke:rgb(0%,0%,0%);stroke-opacity:1;stroke-miterlimit:10;" d="M 75.250697 154.078901 L 75.250697 146.912701 L 96.749298 146.912701 L 96.749298 154.078901 Z M 75.250697 154.078901 " transform="matrix(0.268186,0,0,0.268186,0.936,0.936)"/>
<path style="fill-rule:nonzero;fill:rgb(0%,0%,0%);fill-opacity:1;stroke-width:7;stroke-linecap:butt;stroke-linejoin:round;stroke:rgb(0%,0%,0%);stroke-opacity:1;stroke-miterlimit:10;" d="M 154.04977 17.950225 C 153.802158 18.489146 151.151246 23.572488 146.912701 28.670395 C 145.951381 29.8065 144.917235 30.95717 143.839391 32.035013 C 143.227643 32.646762 142.586763 33.258511 141.931318 33.797432 C 140.999129 34.583966 140.037809 35.326804 139.032794 36.01138 C 138.610396 36.302689 138.144301 36.579433 137.707338 36.841611 C 135.01273 38.414679 132.085075 39.419695 128.9972 39.419695 C 127.380435 39.419695 124.846047 39.958617 121.903827 40.672324 C 117.92746 39.667308 112.698464 38.837077 107.498599 39.419695 C 105.066169 39.667308 102.954179 40.206229 100.798493 41.065591 L 100.769362 41.094722 C 99.152597 41.70647 97.535832 42.493005 95.787979 43.46889 C 91.520302 43.031926 86.466092 43.78933 82.416897 44.648691 L 82.387767 44.648691 C 78.294876 45.537183 75.250697 46.585896 75.250697 46.585896 C 75.250697 46.585896 78.833797 28.670395 85.999998 21.504194 C 89.583098 17.921094 114.664799 14.337994 121.831 14.337994 C 128.9972 14.337994 136.1634 21.504194 143.329601 21.504194 C 150.073403 21.504194 153.612807 18.343492 154.04977 17.950225 Z M 154.04977 17.950225 " transform="matrix(0.268186,0,0,0.268186,0.936,0.936)"/>
<path style="fill-rule:nonzero;fill:rgb(20%,20%,20%);fill-opacity:1;stroke-width:7;stroke-linecap:butt;stroke-linejoin:round;stroke:rgb(0%,0%,0%);stroke-opacity:1;stroke-miterlimit:10;" d="M 146.912701 28.670395 C 145.951381 29.8065 144.917235 30.95717 143.839391 32.035013 C 143.227643 32.646762 142.586763 33.214814 141.931318 33.797432 C 140.999129 34.583966 140.037809 35.326804 139.032794 36.01138 C 138.610396 36.302689 138.144301 36.579433 137.707338 36.841611 C 136.775149 36.157035 136.1634 35.836595 136.1634 35.836595 C 136.1634 35.836595 125.384969 31.073693 114.664799 32.253495 C 107.323813 33.06916 102.881352 38.021412 100.798493 41.065591 L 100.769362 41.094722 L 100.740231 42.726052 L 95.787979 43.46889 C 91.520302 43.031926 86.466092 43.78933 82.416897 44.648691 C 83.203432 42.609528 84.13562 40.279057 85.140636 37.7738 C 86.684574 33.433296 88.621778 29.209316 90.762899 26.878844 C 94.884921 24.766855 114.737626 21.504194 121.831 21.504194 C 129.900258 21.504194 139.746501 28.670395 146.912701 28.670395 Z M 146.912701 28.670395 " transform="matrix(0.268186,0,0,0.268186,0.936,0.936)"/>
<path style="fill-rule:nonzero;fill:rgb(0%,0%,0%);fill-opacity:1;stroke-width:7;stroke-linecap:butt;stroke-linejoin:round;stroke:rgb(0%,0%,0%);stroke-opacity:1;stroke-miterlimit:10;" d="M 139.746501 71.667597 L 121.831 78.833797 C 121.831 78.833797 128.9972 68.084497 114.664799 75.250697 C 103.128964 81.018614 114.664799 82.416897 114.664799 82.416897 L 107.498599 85.999998 C 107.498599 85.999998 103.915499 82.416897 96.749298 85.999998 C 100.332398 78.833797 100.332398 75.250697 93.166198 78.833797 L 100.332398 68.084497 C 100.332398 68.084497 102.444388 74.638948 107.498599 64.501396 C 111.081699 57.335196 103.915499 57.335196 103.915499 57.335196 L 110.367992 46.585896 C 114.096747 47.838524 117.534192 49.48442 120.651198 51.523582 C 118.247899 53.752096 114.664799 60.918296 121.831 60.918296 C 118.247899 64.501396 118.247899 67.69123 133.366834 64.996622 C 133.439662 65.142276 139.746501 71.667597 139.746501 71.667597 Z M 139.746501 71.667597 " transform="matrix(0.268186,0,0,0.268186,0.936,0.936)"/>
<path style="fill-rule:nonzero;fill:rgb(20%,20%,20%);fill-opacity:1;stroke-width:7;stroke-linecap:butt;stroke-linejoin:round;stroke:rgb(0%,0%,0%);stroke-opacity:1;stroke-miterlimit:10;" d="M 132.5803 50.168996 L 133.279442 51.203143 C 142.106103 64.4577 146.198994 80.304908 144.873538 96.16668 L 147.422492 108.649269 C 147.102052 112.378024 144.873538 115.684381 141.50892 117.373972 L 133.978583 120.447282 L 128.764153 121.292078 L 135.01273 115.8446 C 137.692772 113.164558 137.969516 110.047552 137.969516 106.24597 L 137.678207 87.791548 C 137.678207 87.791548 136.658626 66.72991 126.200634 55.762128 Z M 132.5803 50.168996 " transform="matrix(0.268186,0,0,0.268186,0.936,0.936)"/>
<path style="fill-rule:nonzero;fill:rgb(0%,0%,0%);fill-opacity:1;stroke-width:7;stroke-linecap:butt;stroke-linejoin:round;stroke:rgb(0%,0%,0%);stroke-opacity:1;stroke-miterlimit:10;" d="M 143.329601 105.0953 L 143.329601 105.138996 C 143.329601 108.940578 141.82936 112.58194 139.134752 115.276548 L 133.978583 120.432717 L 121.831 125.4141 L 131.968551 115.276548 C 134.663159 112.58194 136.1634 108.940578 136.1634 105.138996 L 136.1634 89.583098 C 136.1634 89.583098 136.629495 68.011669 127.059995 56.723447 C 129.070027 58.981092 130.905274 61.6757 132.5803 64.4577 C 139.863024 76.721807 143.329601 90.835726 143.329601 105.0953 Z M 143.329601 105.0953 " transform="matrix(0.268186,0,0,0.268186,0.936,0.936)"/>
<path style=" stroke:none;fill-rule:nonzero;fill:rgb(0%,0%,0%);fill-opacity:1;" d="M 37.703125 30.128906 C 37.703125 30.128906 39.375 34.570312 44.097656 33.761719 C 41.296875 30.726562 40.960938 26.933594 40.960938 26.933594 Z M 37.703125 30.128906 "/>
<path style=" stroke:none;fill-rule:nonzero;fill:rgb(20%,20%,20%);fill-opacity:1;" d="M 42.402344 33.832031 C 39.078125 33.496094 37.789062 30.351562 37.714844 30.140625 L 40 27.890625 C 40 27.890625 40.28125 30.996094 42.402344 33.832031 Z M 42.402344 33.832031 "/>
<path style=" stroke:none;fill-rule:nonzero;fill:rgb(0%,0%,0%);fill-opacity:1;" d="M 36.492188 8.625 C 36.492188 8.625 40.335938 7.664062 42.257812 12.46875 C 39.375 11.507812 34.570312 11.507812 34.570312 11.507812 Z M 36.492188 8.625 "/>
<path style=" stroke:none;fill-rule:nonzero;fill:rgb(0%,0%,0%);fill-opacity:1;" d="M 35.53125 27.84375 C 35.53125 27.84375 39.375 31.6875 45.140625 27.84375 C 45.140625 27.84375 41.296875 26.882812 40.335938 22.078125 L 35.664062 21.808594 Z M 35.53125 27.84375 "/>
<path style=" stroke:none;fill-rule:nonzero;fill:rgb(20%,20%,20%);fill-opacity:1;" d="M 43.730469 28.652344 C 38.761719 31.074219 35.53125 27.84375 35.53125 27.84375 L 35.648438 22.828125 L 39.375 23.039062 C 40.136719 26.835938 42.691406 28.226562 43.730469 28.652344 Z M 43.730469 28.652344 "/>
<path style=" stroke:none;fill-rule:nonzero;fill:rgb(30.980393%,30.980393%,30.980393%);fill-opacity:1;" d="M 33.609375 37.453125 L 36.011719 37.453125 C 36.917969 37.453125 37.773438 37.027344 38.320312 36.300781 L 39.183594 35.148438 C 39.933594 34.148438 40.335938 32.933594 40.335938 31.6875 L 40.335938 31.40625 C 40.335938 30.960938 40.234375 30.519531 40.03125 30.117188 C 39.628906 29.3125 38.808594 28.804688 37.90625 28.804688 L 33.609375 28.804688 Z M 33.609375 37.453125 "/>
<path style=" stroke:none;fill-rule:nonzero;fill:rgb(0%,0%,0%);fill-opacity:1;" d="M 7.664062 18.234375 C 6.703125 18.234375 6.703125 18.234375 6.703125 16.3125 C 6.703125 13.429688 9.585938 12.46875 9.585938 12.46875 L 21.117188 12.46875 L 18.234375 17.273438 C 18.234375 17.273438 8.625 18.234375 7.664062 18.234375 Z M 7.664062 18.234375 "/>
<path style=" stroke:none;fill-rule:nonzero;fill:rgb(30.980393%,30.980393%,30.980393%);fill-opacity:1;" d="M 14.390625 37.453125 L 11.988281 37.453125 C 11.082031 37.453125 10.226562 37.027344 9.679688 36.300781 L 8.816406 35.148438 C 8.46875 34.683594 8.195312 34.175781 8.003906 33.636719 C 7.820312 33.132812 8.625 31.816406 8.625 31.6875 L 8.625 30.445312 C 8.625 30 7.96875 30.117188 7.96875 30.117188 C 8.371094 29.3125 9.191406 28.804688 10.09375 28.804688 L 14.390625 28.804688 Z M 14.390625 37.453125 "/>
<path style=" stroke:none;fill-rule:nonzero;fill:rgb(0%,0%,0%);fill-opacity:1;" d="M 20.15625 4.78125 C 20.15625 4.78125 26.882812 3.820312 28.804688 3.820312 C 30.726562 3.820312 33.609375 5.742188 33.609375 5.742188 L 34.570312 18.234375 L 21.117188 18.234375 Z M 20.15625 4.78125 "/>
<path style=" stroke:none;fill-rule:nonzero;fill:rgb(0%,0%,0%);fill-opacity:1;" d="M 11.507812 15.351562 C 11.507812 15.351562 7.664062 14.390625 7.664062 10.546875 C 7.664062 8.625 9.074219 6.957031 11.507812 5.742188 C 13.429688 4.78125 15.351562 3.820312 15.351562 0.9375 C 15.351562 0.9375 18.234375 3.820312 18.234375 7.664062 C 18.234375 11.625 18.234375 15.351562 18.234375 15.351562 Z M 11.507812 15.351562 "/>
<path style=" stroke:none;fill-rule:nonzero;fill:rgb(20%,20%,20%);fill-opacity:1;" d="M 14.675781 16.3125 C 14.097656 16.109375 9.585938 13.429688 9.585938 10.546875 C 9.585938 9.070312 11.328125 7.980469 12.367188 7.460938 C 13.421875 6.933594 16.3125 5.105469 17.847656 4.226562 C 18.152344 4.984375 16.3125 6.738281 16.3125 7.664062 L 16.3125 14.390625 Z M 14.675781 16.3125 "/>
<path style=" stroke:none;fill-rule:nonzero;fill:rgb(0%,0%,0%);fill-opacity:1;" d="M 11.507812 33.609375 C 11.507812 33.609375 10.546875 34.570312 5.742188 33.609375 C 7.664062 33.609375 8.625 29.765625 8.625 28.804688 L 11.507812 28.804688 Z M 11.507812 33.609375 "/>
<path style=" stroke:none;fill-rule:nonzero;fill:rgb(20%,20%,20%);fill-opacity:1;" d="M 11.507812 29.121094 L 11.507812 33.609375 C 11.507812 33.609375 10.824219 34.292969 7.730469 33.925781 C 9.605469 33.832031 10.546875 30.074219 10.546875 29.121094 Z M 11.507812 29.121094 "/>
<path style=" stroke:none;fill-rule:nonzero;fill:rgb(0%,0%,0%);fill-opacity:1;" d="M 17.273438 14.390625 C 17.273438 14.390625 13.429688 12.46875 13.429688 9.585938 C 13.429688 7.664062 15.125 5.96875 17.273438 3.820312 C 20.15625 0.9375 23.039062 2.859375 27.84375 1.898438 C 27.84375 1.898438 23.039062 6.703125 24 10.546875 C 24.960938 14.390625 24 14.390625 24 14.390625 Z M 17.273438 14.390625 "/>
<path style=" stroke:none;fill-rule:nonzero;fill:rgb(20%,20%,20%);fill-opacity:1;" d="M 22.632812 12.46875 L 18.730469 13.429688 C 17.765625 12.847656 16.3125 10.695312 16.3125 9.585938 C 16.3125 8.457031 17.832031 6.9375 19.59375 5.179688 C 20.539062 4.230469 21.414062 4.058594 22.796875 4.058594 C 23.179688 4.058594 23.445312 4.101562 23.660156 4.105469 L 22.078125 6.703125 L 25.921875 6.703125 C 28.292969 6.457031 29.457031 5.742188 29.765625 5.742188 C 30.523438 5.742188 32.160156 6.332031 33.511719 6.921875 Z M 22.632812 12.46875 "/>
<path style=" stroke:none;fill-rule:nonzero;fill:rgb(0%,0%,0%);fill-opacity:1;" d="M 11.507812 29.765625 C 11.507812 29.765625 8.625 32.648438 2.859375 28.804688 C 2.859375 28.804688 7.664062 27.84375 8.625 23.039062 L 10.546875 22.078125 Z M 11.507812 29.765625 "/>
<path style=" stroke:none;fill-rule:nonzero;fill:rgb(20%,20%,20%);fill-opacity:1;" d="M 11.507812 29.765625 C 11.507812 29.765625 9.21875 32.054688 4.65625 29.84375 C 5.078125 29.738281 9.480469 28.652344 10.390625 24.078125 L 10.777344 23.882812 Z M 11.507812 29.765625 "/>
<path style=" stroke:none;fill-rule:nonzero;fill:rgb(0%,0%,0%);fill-opacity:1;" d="M 12.46875 21.117188 L 11.507812 24 C 4.78125 28.804688 0.9375 24 0.9375 24 C 0.9375 24 4.78125 24 5.742188 19.195312 C 6.335938 16.214844 10.546875 16.3125 10.546875 16.3125 L 15.351562 16.3125 Z M 12.46875 21.117188 "/>
<path style=" stroke:none;fill-rule:nonzero;fill:rgb(20%,20%,20%);fill-opacity:1;" d="M 14.199219 18.234375 L 12.46875 21.117188 L 11.507812 24 C 8.144531 26.402344 5.5 26.402344 3.703125 25.796875 C 4.894531 25.5 6.828125 24.453125 7.664062 21.117188 C 8.625 17.273438 13.429688 15.351562 13.429688 15.351562 Z M 14.199219 18.234375 "/>
<path style=" stroke:none;fill-rule:nonzero;fill:rgb(0%,0%,0%);fill-opacity:1;" d="M 35.53125 20.15625 L 36.492188 23.039062 C 43.21875 27.84375 47.0625 23.039062 47.0625 23.039062 C 47.0625 23.039062 43.21875 24.960938 41.296875 15.351562 C 40.703125 12.371094 37.453125 10.546875 37.453125 10.546875 C 37.453125 10.546875 34.5625 9.261719 31.6875 9.585938 C 28.8125 9.90625 25.273438 12.835938 25.273438 12.835938 Z M 35.53125 20.15625 "/>
<path style=" stroke:none;fill-rule:nonzero;fill:rgb(20%,20%,20%);fill-opacity:1;" d="M 43.644531 25.019531 C 41.882812 25.414062 39.472656 25.164062 36.492188 23.039062 L 35.53125 20.15625 L 25.683594 13.132812 C 26.894531 12.390625 28.402344 11.652344 29.765625 11.507812 C 32.640625 11.191406 35.53125 12.46875 35.53125 12.46875 C 35.53125 12.46875 38.78125 14.292969 39.375 17.273438 C 40.519531 23 42.355469 24.632812 43.644531 25.019531 Z M 43.644531 25.019531 "/>
<path style=" stroke:none;fill-rule:nonzero;fill:rgb(93.333334%,93.333334%,93.333334%);fill-opacity:1;" d="M 37.726562 20.65625 C 36.882812 18.039062 35.363281 16.089844 33.296875 14.75 L 31.644531 14.785156 L 30.535156 13.425781 C 28.632812 12.773438 26.4375 12.460938 24 12.46875 C 17.078125 12.449219 12.105469 14.988281 10.273438 20.65625 C 9.332031 23.570312 9.429688 27.296875 10.128906 29.804688 L 12.089844 36.660156 C 12.960938 39.667969 14.785156 42.316406 17.292969 44.195312 L 18.8125 45.335938 C 20.308594 46.457031 22.128906 47.0625 24 47.0625 C 25.871094 47.0625 27.691406 46.457031 29.1875 45.335938 L 30.707031 44.195312 C 33.214844 42.316406 35.039062 39.667969 35.910156 36.660156 L 37.871094 29.804688 C 38.574219 27.296875 38.667969 23.570312 37.726562 20.65625 Z M 37.726562 20.65625 "/>
<path style=" stroke:none;fill-rule:nonzero;fill:rgb(30.980393%,30.980393%,30.980393%);fill-opacity:1;" d="M 23.75 35.613281 C 24.09375 35.988281 24.070312 37.992188 23.75 38.34375 C 23.429688 38.691406 22.078125 37.699219 22.078125 36.976562 C 22.078125 36.253906 23.40625 35.238281 23.75 35.613281 Z M 23.75 35.613281 "/>
<path style=" stroke:none;fill-rule:nonzero;fill:rgb(100%,100%,100%);fill-opacity:1;" d="M 12.46875 30.726562 L 12.46875 32.648438 L 14.390625 34.570312 L 18.234375 34.570312 L 20.15625 32.648438 L 20.15625 29.765625 L 18.714844 28.324219 L 14.871094 28.324219 L 13.207031 29.347656 Z M 12.46875 30.726562 "/>
<path style=" stroke:none;fill-rule:nonzero;fill:rgb(0%,0%,0%);fill-opacity:1;" d="M 18.21875 28.804688 C 17.820312 28.507812 17.328125 28.324219 16.792969 28.324219 C 16.355469 28.324219 15.949219 28.441406 15.59375 28.644531 C 15.398438 28.757812 15.507812 28.644531 15.351562 28.804688 L 14.390625 29.765625 L 14.390625 30.726562 C 14.390625 32.054688 15.464844 33.128906 16.792969 33.128906 C 18.121094 33.128906 19.195312 32.054688 19.195312 30.726562 L 19.195312 28.804688 Z M 18.21875 28.804688 "/>
<path style=" stroke:none;fill-rule:nonzero;fill:rgb(20%,20%,20%);fill-opacity:1;" d="M 19.195312 28.324219 L 15.914062 28.242188 L 14.390625 29.765625 L 14.390625 30.726562 L 15.4375 30.726562 C 15.636719 31.285156 16.164062 31.6875 16.792969 31.6875 C 17.417969 31.6875 17.949219 31.285156 18.144531 30.726562 L 19.195312 30.726562 Z M 19.195312 28.324219 "/>
<path style=" stroke:none;fill-rule:nonzero;fill:rgb(12.941177%,12.941177%,12.941177%);fill-opacity:1;" d="M 18.914062 27.84375 L 14.390625 27.84375 L 12.734375 28.855469 L 12.46875 30.726562 L 13.160156 29.714844 L 13.164062 29.714844 L 14.984375 28.804688 L 18.515625 28.804688 L 20.296875 30.585938 L 20.976562 29.90625 Z M 18.914062 27.84375 "/>
<path style=" stroke:none;fill-rule:nonzero;fill:rgb(100%,100%,100%);fill-opacity:1;" d="M 35.53125 30.726562 L 35.53125 32.648438 L 33.609375 34.570312 L 29.765625 34.570312 L 27.84375 32.648438 L 27.84375 29.765625 L 29.285156 28.324219 L 33.128906 28.324219 L 34.792969 29.347656 Z M 35.53125 30.726562 "/>
<path style=" stroke:none;fill-rule:nonzero;fill:rgb(0%,0%,0%);fill-opacity:1;" d="M 29.78125 28.804688 C 30.179688 28.507812 30.671875 28.324219 31.207031 28.324219 C 31.644531 28.324219 32.050781 28.441406 32.40625 28.644531 C 32.601562 28.757812 32.492188 28.644531 32.648438 28.804688 L 33.609375 29.765625 L 33.609375 30.726562 C 33.609375 32.054688 32.535156 33.128906 31.207031 33.128906 C 29.878906 33.128906 28.804688 32.054688 28.804688 30.726562 L 28.804688 28.804688 Z M 29.78125 28.804688 "/>
<path style=" stroke:none;fill-rule:nonzero;fill:rgb(20%,20%,20%);fill-opacity:1;" d="M 28.804688 28.324219 L 32.085938 28.242188 L 33.609375 29.765625 L 33.609375 30.726562 L 32.5625 30.726562 C 32.363281 31.285156 31.835938 31.6875 31.207031 31.6875 C 30.582031 31.6875 30.050781 31.285156 29.855469 30.726562 L 28.804688 30.726562 Z M 28.804688 28.324219 "/>
<path style=" stroke:none;fill-rule:nonzero;fill:rgb(12.941177%,12.941177%,12.941177%);fill-opacity:1;" d="M 29.085938 27.84375 L 33.609375 27.84375 L 35.265625 28.855469 L 35.53125 30.726562 L 34.839844 29.714844 L 34.835938 29.714844 L 33.015625 28.804688 L 29.484375 28.804688 L 27.703125 30.585938 L 27.023438 29.90625 Z M 29.085938 27.84375 "/>
<path style=" stroke:none;fill-rule:nonzero;fill:rgb(12.941177%,12.941177%,12.941177%);fill-opacity:1;" d="M 11.507812 22.078125 L 16.3125 25.921875 L 21.117188 27.84375 L 19.195312 25.921875 Z M 11.507812 22.078125 "/>
<path style=" stroke:none;fill-rule:nonzero;fill:rgb(12.941177%,12.941177%,12.941177%);fill-opacity:1;" d="M 36.492188 22.078125 L 31.6875 25.921875 L 26.882812 27.84375 L 28.804688 25.921875 Z M 36.492188 22.078125 "/>
<path style=" stroke:none;fill-rule:nonzero;fill:rgb(100%,100%,100%);fill-opacity:1;" d="M 18.234375 30.726562 C 18.234375 31.257812 17.804688 31.6875 17.273438 31.6875 C 16.742188 31.6875 16.3125 31.257812 16.3125 30.726562 C 16.3125 30.195312 16.742188 29.765625 17.273438 29.765625 C 17.804688 29.765625 18.234375 30.195312 18.234375 30.726562 Z M 18.234375 30.726562 "/>
<path style=" stroke:none;fill-rule:nonzero;fill:rgb(100%,100%,100%);fill-opacity:1;" d="M 32.648438 30.726562 C 32.648438 31.257812 32.21875 31.6875 31.6875 31.6875 C 31.15625 31.6875 30.726562 31.257812 30.726562 30.726562 C 30.726562 30.195312 31.15625 29.765625 31.6875 29.765625 C 32.21875 29.765625 32.648438 30.195312 32.648438 30.726562 Z M 32.648438 30.726562 "/>
<path style=" stroke:none;fill-rule:nonzero;fill:rgb(30.980393%,30.980393%,30.980393%);fill-opacity:1;" d="M 21.117188 40.335938 L 26.882812 40.335938 L 26.882812 42.257812 L 21.117188 42.257812 Z M 21.117188 40.335938 "/>
<path style=" stroke:none;fill-rule:nonzero;fill:rgb(0%,0%,0%);fill-opacity:1;" d="M 42.25 5.75 C 42.183594 5.894531 41.472656 7.257812 40.335938 8.625 C 40.078125 8.929688 39.800781 9.238281 39.511719 9.527344 C 39.347656 9.691406 39.175781 9.855469 39 10 C 38.75 10.210938 38.492188 10.410156 38.222656 10.59375 C 38.109375 10.671875 37.984375 10.746094 37.867188 10.816406 C 37.144531 11.238281 36.359375 11.507812 35.53125 11.507812 C 35.097656 11.507812 34.417969 11.652344 33.628906 11.84375 C 32.5625 11.574219 31.160156 11.351562 29.765625 11.507812 C 29.113281 11.574219 28.546875 11.71875 27.96875 11.949219 L 27.960938 11.957031 C 27.527344 12.121094 27.09375 12.332031 26.625 12.59375 C 25.480469 12.476562 24.125 12.679688 23.039062 12.910156 L 23.03125 12.910156 C 21.933594 13.148438 21.117188 13.429688 21.117188 13.429688 C 21.117188 13.429688 22.078125 8.625 24 6.703125 C 24.960938 5.742188 31.6875 4.78125 33.609375 4.78125 C 35.53125 4.78125 37.453125 6.703125 39.375 6.703125 C 41.183594 6.703125 42.132812 5.855469 42.25 5.75 Z M 42.25 5.75 "/>
<path style=" stroke:none;fill-rule:nonzero;fill:rgb(20%,20%,20%);fill-opacity:1;" d="M 40.335938 8.625 C 40.078125 8.929688 39.800781 9.238281 39.511719 9.527344 C 39.347656 9.691406 39.175781 9.84375 39 10 C 38.75 10.210938 38.492188 10.410156 38.222656 10.59375 C 38.109375 10.671875 37.984375 10.746094 37.867188 10.816406 C 37.617188 10.632812 37.453125 10.546875 37.453125 10.546875 C 37.453125 10.546875 34.5625 9.269531 31.6875 9.585938 C 29.71875 9.804688 28.527344 11.132812 27.96875 11.949219 L 27.960938 11.957031 L 27.953125 12.394531 L 26.625 12.59375 C 25.480469 12.476562 24.125 12.679688 23.039062 12.910156 C 23.25 12.363281 23.5 11.738281 23.769531 11.066406 C 24.183594 9.902344 24.703125 8.769531 25.277344 8.144531 C 26.382812 7.578125 31.707031 6.703125 33.609375 6.703125 C 35.773438 6.703125 38.414062 8.625 40.335938 8.625 Z M 40.335938 8.625 "/>
<path style=" stroke:none;fill-rule:nonzero;fill:rgb(0%,0%,0%);fill-opacity:1;" d="M 38.414062 20.15625 L 33.609375 22.078125 C 33.609375 22.078125 35.53125 19.195312 31.6875 21.117188 C 28.59375 22.664062 31.6875 23.039062 31.6875 23.039062 L 29.765625 24 C 29.765625 24 28.804688 23.039062 26.882812 24 C 27.84375 22.078125 27.84375 21.117188 25.921875 22.078125 L 27.84375 19.195312 C 27.84375 19.195312 28.410156 20.953125 29.765625 18.234375 C 30.726562 16.3125 28.804688 16.3125 28.804688 16.3125 L 30.535156 13.429688 C 31.535156 13.765625 32.457031 14.207031 33.292969 14.753906 C 32.648438 15.351562 31.6875 17.273438 33.609375 17.273438 C 32.648438 18.234375 32.648438 19.089844 36.703125 18.367188 C 36.722656 18.40625 38.414062 20.15625 38.414062 20.15625 Z M 38.414062 20.15625 "/>
<path style=" stroke:none;fill-rule:nonzero;fill:rgb(20%,20%,20%);fill-opacity:1;" d="M 34.78125 15.890625 C 37.585938 18.832031 37.859375 24.480469 37.859375 24.480469 L 37.9375 29.429688 C 37.9375 30.449219 37.863281 31.285156 37.144531 32.003906 L 35.46875 33.464844 L 36.867188 33.238281 L 38.886719 32.414062 C 39.789062 31.960938 40.386719 31.074219 40.472656 30.074219 L 39.789062 26.726562 C 40.144531 22.472656 39.046875 18.222656 36.679688 14.667969 L 36.492188 14.390625 Z M 34.78125 15.890625 "/>
<path style=" stroke:none;fill-rule:nonzero;fill:rgb(0%,0%,0%);fill-opacity:1;" d="M 39.375 29.121094 L 39.375 29.132812 C 39.375 30.152344 38.972656 31.128906 38.25 31.851562 L 36.867188 33.234375 L 33.609375 34.570312 L 36.328125 31.851562 C 37.050781 31.128906 37.453125 30.152344 37.453125 29.132812 L 37.453125 24.960938 C 37.453125 24.960938 37.578125 19.175781 35.011719 16.148438 C 35.550781 16.753906 36.042969 17.476562 36.492188 18.222656 C 38.445312 21.511719 39.375 25.296875 39.375 29.121094 Z M 39.375 29.121094 "/>
</g>
</svg>
